<svg xmlns="http://www.w3.org/2000/svg" viewBox="0 0 381.16 94.7"><defs><style>.cls-1{fill:#fff;}</style></defs><g id="Camada_2" data-name="Camada 2"><g id="Camada_1-2" data-name="Camada 1"><path class="cls-1" d="M119.67,32.86h0a1.77,1.77,0,0,1,1.77,1.69l.1,2.27a10,10,0,0,1,8.86-4.6c7.23,0,9.68,3.38,8.16,11.31l-3.33,17.06A1.77,1.77,0,0,1,133.49,62H133a1.77,1.77,0,0,1-1.73-2.11l3.2-16.38c.94-4.9-.58-7.23-4.84-7.23-4.61,0-7.75,3.21-9.62,8.28l-3.11,16A1.76,1.76,0,0,1,115.18,62h-2.63l5.38-27.73A1.77,1.77,0,0,1,119.67,32.86Z"/><path class="cls-1" d="M143.35,47.44c2-10.67,6.76-15.22,15.39-15.22s11.67,4.6,9.63,15.22S161.49,62.6,152.85,62.6,141.25,58.17,143.35,47.44Zm10.32,11.08c5.72,0,8.75-3.27,10.32-11.08s-.29-11.14-6-11.14-8.75,3.27-10.27,11.14S148,58.52,153.67,58.52Z"/><path class="cls-1" d="M172.63,53.27l3.26-16.62h-4l.3-1.67a1.84,1.84,0,0,1,1.4-1.45l3-.67L178,25.7a1.83,1.83,0,0,1,1.79-1.47h.37a1.83,1.83,0,0,1,1.79,2.17l-1.27,6.46h4.81A1.82,1.82,0,0,1,187.27,35l0,.13a1.83,1.83,0,0,1-1.8,1.5H180l-3.26,16.62c-.76,3.91.17,5.48,3.2,5.48a12.56,12.56,0,0,0,1.81-.15,1.83,1.83,0,0,1,2.08,2.1h0a1.83,1.83,0,0,1-1.49,1.5,22,22,0,0,1-3.85.4C173.09,62.6,171.4,59.68,172.63,53.27Z"/><path class="cls-1" d="M187.56,53.5c.93-4.66,4.66-7.81,12.3-8.8,3.09-.35,5.89-.59,7.47-.64l.4-2.05c.82-4-.58-5.71-5.3-5.71A14.89,14.89,0,0,0,196.15,38a1.91,1.91,0,0,1-2.73-1.43h0a1.91,1.91,0,0,1,1-2,20.38,20.38,0,0,1,8.72-2.29c7.53,0,10,2.91,8.64,9.79l-3.61,18.46A1.91,1.91,0,0,1,206.33,62h-1.69l-.06-3.33a12.26,12.26,0,0,1-8.92,3.91C189,62.6,186.39,59.74,187.56,53.5Zm8.8,5.6c4.37,0,8.81-3.73,9.51-7.52l.75-4c-1.63.12-4.49.35-7.46.76-4.66.64-6.71,2.74-7.23,5.19C191.17,57.41,192.86,59.1,196.36,59.1Z"/><path class="cls-1" d="M214.51,58.16a2.19,2.19,0,0,1,2.9-1,15,15,0,0,0,6.42,1.4c4.08,0,6.88-1.75,7.41-4.67,1.57-7.87-15.57-.93-13.18-13.18,1.11-5.65,5-8.45,11.84-8.45a19.05,19.05,0,0,1,6.47,1.15,2.2,2.2,0,0,1,1.21,3h0a2.2,2.2,0,0,1-2.89,1,13.66,13.66,0,0,0-5.55-1.14c-3.91,0-6.13,1.52-6.71,4.37-1.57,8.23,15.57.94,13.18,13.18C234.5,59.51,230,62.6,223,62.6a20.3,20.3,0,0,1-7.32-1.38,2.2,2.2,0,0,1-1.16-3Z"/><path class="cls-1" d="M11,32.15h1a3.4,3.4,0,0,1,3.39,3.27h0a11.88,11.88,0,0,1,9.1-3.91c8.57,0,11.61,4.67,9.51,15.58S27.06,62.6,18.49,62.6c-3.62,0-6.07-1.17-7.58-3.44L8.47,71.48a3.39,3.39,0,0,1-3.32,2.73H0L7.63,34.9A3.39,3.39,0,0,1,11,32.15Zm1.46,19c.24,3,2.1,4.61,5.43,4.61,4.43,0,6.76-2.57,7.93-8.63s-.17-8.7-4.55-8.7c-3.32,0-5.83,1.75-7.35,5.2Z"/><path class="cls-1" d="M45.91,20h0a3.9,3.9,0,0,1,3.82,4.64L43.08,58.87A3.9,3.9,0,0,1,39.25,62H34.53l7.55-38.91A3.9,3.9,0,0,1,45.91,20Z"/><path class="cls-1" d="M49.93,51.34l3.12-16a3.89,3.89,0,0,1,3.82-3.15h0a3.89,3.89,0,0,1,3.81,4.64l-2.53,12.8c-.81,4.2.53,5.84,3.44,5.84,3.39,0,5.66-2.45,7.24-7.06L71.37,35.3a3.88,3.88,0,0,1,3.81-3.15h0A3.89,3.89,0,0,1,79,36.79L74.69,58.88A3.9,3.9,0,0,1,70.88,62h-3.8L67,58.4a10.32,10.32,0,0,1-8.57,4.26C50.92,62.66,48.35,59.28,49.93,51.34Z"/><path class="cls-1" d="M79,68.88h0a3.65,3.65,0,0,1,4.76-2.22,17,17,0,0,0,5.88,1.19c5.37,0,8-2.51,9.33-9L99,58a12.24,12.24,0,0,1-9,3.68c-8.58,0-11.61-4.49-9.57-15.05S87.38,31.51,96,31.51c3.79,0,6.24,1.34,7.64,3.85l.4-1a3.66,3.66,0,0,1,3.38-2.26h.22a3.67,3.67,0,0,1,3.6,4.38l-4.51,23c-2,10.67-7.35,15.16-17.85,15.16a22,22,0,0,1-7.69-1.2A3.66,3.66,0,0,1,79,68.88Zm14.43-14.1c3.21,0,5.78-1.74,7.29-5l1.17-6.13c-.12-3.5-1.92-5.25-5.25-5.25-4.43,0-6.71,2.45-7.87,8.23S89,54.78,93.38,54.78Z"/><path class="cls-1" d="M377.82,37.06,345.06,3.53A11.73,11.73,0,0,0,336.67,0c-7,0,2.44,0-4.8,0H302.92a9.5,9.5,0,0,0-9.31,7.63c-.44,2.22-.89,4.44-1.33,6.67a33.89,33.89,0,0,0-17.15,14.35c-13.22,3.63-22.3,16.25-20.9,29.47,1.24,11.76,10.56,21.64,22.68,24l.35.07h1.4c-.08.37-.15.75-.23,1.12a9.5,9.5,0,0,0,9.32,11.36H336.3a11.74,11.74,0,0,0,8.81-4Q361.67,71.84,378.25,53A11.71,11.71,0,0,0,377.82,37.06ZM261.67,57.34c-1.06-10,6.28-19.59,16.69-21.78l1.73-.36.81-1.56A26.11,26.11,0,0,1,328,35.31l.62,1.42,1.45.56a20,20,0,0,1-1.45,37.77L278,74.73C269.26,72.87,262.55,65.76,261.67,57.34Z"/><path class="cls-1" d="M313.41,40.15l-21.38,0a2.83,2.83,0,0,0,.36,5.63h21.2a2.85,2.85,0,0,0,2.1-.92,2.78,2.78,0,0,0,.76-2.09A2.85,2.85,0,0,0,313.41,40.15Z"/><path class="cls-1" d="M303.69,53.94H290.81A2.86,2.86,0,0,0,288,56.69a2.85,2.85,0,0,0,2.91,2.89h12.77a2.82,2.82,0,0,0,1.91-.74,2.86,2.86,0,0,0,.93-2,2.82,2.82,0,0,0-.78-2A2.87,2.87,0,0,0,303.69,53.94Z"/></g></g></svg>